<svg height="50px" width="50px" version="1.1" id="Layer_1" xmlns="http://www.w3.org/2000/svg" xmlns:xlink="http://www.w3.org/1999/xlink" viewBox="0 0 512 512" xml:space="preserve" fill="#000000"><g id="SVGRepo_bgCarrier" stroke-width="0"></g><g id="SVGRepo_tracerCarrier" stroke-linecap="round" stroke-linejoin="round"></g><g id="SVGRepo_iconCarrier"> <path style="fill:#6A1B9A;" d="M429.543,133.565H82.456c-9.217,0-16.696-7.473-16.696-16.696s7.479-16.696,16.696-16.696h347.087 c9.217,0,16.696,7.473,16.696,16.696S438.761,133.565,429.543,133.565z"></path> <path style="fill:#6A1B9A;" d="M429.543,100.174H256v33.391h173.544c9.217,0,16.696-7.473,16.696-16.696 S438.761,100.174,429.543,100.174z"></path> <path style="fill:#6A1B9A;" d="M456.348,337.158c-9.217,0-16.696-7.473-16.696-16.696V217.043 c0-101.266-82.391-183.652-183.652-183.652S72.348,115.778,72.348,217.043v103.418c0,9.223-7.479,16.696-16.696,16.696 s-16.696-7.473-16.696-16.696V217.043C38.957,97.365,136.326,0,256,0s217.043,97.365,217.043,217.043v103.418 C473.043,329.685,465.565,337.158,456.348,337.158z"></path> <path style="fill:#6A1B9A;" d="M439.652,217.043v103.418c0,9.223,7.479,16.696,16.696,16.696c9.217,0,16.696-7.473,16.696-16.696 V217.043C473.043,97.365,375.674,0,256,0v33.391C357.261,33.391,439.652,115.778,439.652,217.043z"></path> <path style="fill:#EDF0F2;" d="M172.522,278.261h-50.087c-0.057,0-0.114,0-0.17,0c-9.234,0.014-16.525,7.938-16.525,17.172v199.394 c0,9.234,7.292,17.159,16.525,17.173c0.057,0,0.114,0,0.17,0h50.087c18.442,0,33.391-14.949,33.391-33.391V311.652 C205.913,293.21,190.964,278.261,172.522,278.261z"></path> <path style="fill:#DAE1E6;" d="M389.565,278.261h-50.087c-18.442,0-33.391,14.949-33.391,33.391v166.957 c0,18.442,14.949,33.391,33.391,33.391h50.087c0.214,0,0.426-0.001,0.639-0.002c8.974-0.052,16.057-7.731,16.057-16.706V294.969 c0-8.974-7.082-16.653-16.057-16.706C389.991,278.262,389.778,278.261,389.565,278.261z"></path> <path style="fill:#6A1B9A;" d="M389.565,512H372.87V278.261h16.696c64.545,0,116.87,52.324,116.87,116.87l0,0 C506.435,459.676,454.111,512,389.565,512z"></path> <path style="fill:#6A1B9A;" d="M139.13,512h-16.696c-64.545,0-116.87-52.324-116.87-116.87l0,0 c0-64.545,52.324-116.87,116.87-116.87h16.696V512z"></path> </g></svg>