<svg id='Mute_24' width='24' height='24' viewBox='0 0 24 24' xmlns='http://www.w3.org/2000/svg' xmlns:xlink='http://www.w3.org/1999/xlink'><rect width='24' height='24' stroke='none' fill='#000000' opacity='0'/>


<g transform="matrix(0.49 0 0 0.49 12 12)" >
<path style="stroke: none; stroke-width: 1; stroke-dasharray: none; stroke-linecap: butt; stroke-dashoffset: 0; stroke-linejoin: miter; stroke-miterlimit: 4; fill: rgb(0,0,0); fill-rule: nonzero; opacity: 1;" transform=" translate(-24.51, -24)" d="M 26.216797 7.1015625 C 26.084935 7.1013567 25.952471 7.1110209 25.820312 7.1289062 C 25.29168 7.2004472 24.770296 7.4185563 24.339844 7.8007812 C 24.339843576154536 7.801432266597686 24.339843576154536 7.802083333402315 24.339844 7.8027344 L 15.117188 16 L 8.5 16 C 6.0324991 16 4 18.032499 4 20.5 L 4 27.5 C 4 29.967501 6.0324991 32 8.5 32 L 15.117188 32 L 24.339844 40.197266 C 25.200649 40.96254 26.421458 41.075139 27.345703 40.660156 C 28.269948 40.245173 29 39.257378 29 38.105469 L 29 9.8945312 C 29 8.7430679 28.271967 7.7549754 27.347656 7.3398438 C 27.00104 7.1841693 26.612384 7.10218 26.216797 7.1015625 z M 26 10.339844 L 26 37.660156 L 16.683594 29.378906 C 16.40912924543957 29.13494611238277 16.05471561968889 29.000130071648975 15.6875 29 L 8.5 29 C 7.6535009 29 7 28.346499 7 27.5 L 7 20.5 C 7 20.394188 7.0097744 20.292241 7.0292969 20.193359 C 7.1659543 19.501187 7.7593133 19 8.5 19 L 15.6875 19 C 16.05471561968889 18.999869928351025 16.409129245439573 18.86505388761723 16.683594 18.621094 L 26 10.339844 z M 43.486328 17.978516 C 43.09018879027819 17.98787095770123 42.71384030024034 18.153576456402195 42.439453 18.439453 L 39 21.878906 L 35.560547 18.439453 C 35.27806811244697 18.148551783290607 34.88985969704336 17.984391120064803 34.484375 17.984375 C 33.87372994891489 17.984523900544083 33.32411416519188 18.35479789068256 33.09459209985683 18.92066626946904 C 32.86507003452178 19.486534648255525 33.00145176283927 20.13505632227395 33.439453 20.560547 L 36.878906 24 L 33.439453 27.439453 C 33.04760650892017 27.81568119512626 32.88976557766029 28.37434971051894 33.02680278146244 28.90000371473999 C 33.163839985264595 29.425657718961045 33.57434228103895 29.83616001473541 34.099996285260005 29.97319721853756 C 34.625650289481065 30.11023442233971 35.18431880487374 29.95239349107983 35.560547 29.560547 L 39 26.121094 L 42.439453 29.560547 C 42.81568119512626 29.95239349107983 43.37434971051894 30.110234422339712 43.900003714739995 29.97319721853756 C 44.42565771896105 29.83616001473541 44.83616001473541 29.425657718961045 44.97319721853756 28.90000371473999 C 45.11023442233971 28.37434971051894 44.95239349107983 27.81568119512626 44.560547 27.439453 L 41.121094 24 L 44.560547 20.560547 C 45.00700432767069 20.132039053370416 45.1445262511526 19.47336054050951 44.90682384612622 18.902010584352833 C 44.66912144109984 18.33066062819616 44.104979416466385 17.96389989040478 43.486328 17.978516 z" stroke-linecap="round" />
</g>
</svg>